<svg xmlns="http://www.w3.org/2000/svg" viewBox="760 30 180 120"><path fill="#70bf4b" fill-rule="nonzero" d="M766.10 34.75H924.54V68.94H766.10Z"/><path fill="#ffffff" fill-rule="nonzero" d="M777.67 44.21C777.31 44.21 776.97 44.22 776.67 44.25C776.37 44.28 776.06 44.31 775.75 44.35L775.75 60.87C776.26 60.92 776.70 60.95 777.07 60.95C778.41 60.95 779.49 60.74 780.32 60.33C781.15 59.92 781.79 59.34 782.26 58.59C782.73 57.85 783.05 56.97 783.21 55.95C783.38 54.93 783.46 53.81 783.46 52.58C783.46 51.61 783.41 50.62 783.31 49.62C783.21 48.62 782.96 47.72 782.57 46.92C782.17 46.12 781.59 45.47 780.82 44.96C780.04 44.46 779.00 44.21 777.67 44.21M769.55 43.05L774.51 43.11L780.32 43.05C781.83 43.05 783.07 43.27 784.05 43.71C785.04 44.15 785.81 44.78 786.37 45.58C786.93 46.39 787.32 47.36 787.54 48.49C787.76 49.62 787.87 50.86 787.87 52.22C787.87 53.76 787.75 55.15 787.51 56.38C787.27 57.61 786.84 58.65 786.22 59.50C785.59 60.36 784.74 61.01 783.67 61.47C782.59 61.93 781.22 62.16 779.55 62.16L773.93 62.11L769.55 62.16L769.55 61.03L769.66 61.03C770.10 61.03 770.45 61.01 770.72 60.96C770.98 60.92 771.20 60.84 771.35 60.73C771.51 60.62 771.61 60.48 771.65 60.32C771.70 60.15 771.72 59.94 771.72 59.68L771.72 45.53C771.72 45.27 771.70 45.06 771.65 44.90C771.61 44.73 771.51 44.59 771.35 44.48C771.20 44.37 770.98 44.29 770.72 44.25C770.45 44.20 770.10 44.18 769.66 44.18L769.55 44.18L769.55 43.05"/><path fill="#ffffff" fill-rule="nonzero" d="M796.00 49.96C795.52 49.96 795.15 50.07 794.88 50.29C794.62 50.51 794.42 50.81 794.29 51.17C794.16 51.54 794.08 51.96 794.06 52.44C794.03 52.92 794.00 53.42 793.99 53.95L793.99 54.67L798.12 54.67L798.12 53.79C798.12 53.24 798.11 52.73 798.08 52.26C798.05 51.79 797.97 51.39 797.83 51.05C797.69 50.71 797.48 50.44 797.20 50.25C796.91 50.06 796.51 49.96 796.00 49.96M789.96 55.52C789.96 54.29 790.08 53.25 790.31 52.40C790.54 51.55 790.90 50.86 791.40 50.35C791.89 49.83 792.54 49.46 793.33 49.23C794.11 49.00 795.07 48.89 796.19 48.89C797.27 48.89 798.18 49.00 798.90 49.23C799.63 49.46 800.21 49.82 800.64 50.31C801.07 50.79 801.38 51.42 801.56 52.18C801.75 52.94 801.84 53.84 801.84 54.89C801.84 55.18 801.83 55.40 801.83 55.52C801.82 55.65 801.81 55.79 801.81 55.94L793.99 55.94L793.99 57.07C793.99 57.60 794.01 58.12 794.07 58.62C794.12 59.13 794.24 59.57 794.41 59.96C794.59 60.34 794.84 60.66 795.16 60.89C795.48 61.13 795.91 61.25 796.44 61.25C797.12 61.25 797.66 61.08 798.06 60.74C798.47 60.40 798.76 59.75 798.95 58.77C798.96 58.72 798.99 58.62 799.02 58.47C799.04 58.32 799.15 58.25 799.33 58.25L801.10 58.25C801.13 58.25 801.19 58.27 801.27 58.32C801.36 58.37 801.40 58.49 801.40 58.69C801.40 59.39 801.26 59.97 800.97 60.44C800.69 60.91 800.31 61.28 799.84 61.57C799.37 61.85 798.84 62.06 798.24 62.19C797.65 62.32 797.04 62.38 796.41 62.38C795.14 62.38 794.09 62.25 793.26 61.98C792.42 61.72 791.76 61.30 791.27 60.74C790.79 60.18 790.45 59.47 790.25 58.61C790.06 57.75 789.96 56.72 789.96 55.52"/><path fill="#ffffff" fill-rule="nonzero" d="M808.78 50.73C809.46 50.09 810.14 49.62 810.81 49.33C811.48 49.04 812.26 48.89 813.16 48.89C813.79 48.89 814.31 48.97 814.73 49.12C815.16 49.28 815.50 49.46 815.77 49.67C816.03 49.88 816.24 50.10 816.37 50.32C816.51 50.54 816.61 50.71 816.66 50.84C817.25 50.15 817.93 49.65 818.72 49.34C819.50 49.04 820.24 48.89 820.96 48.89C821.57 48.89 822.11 48.95 822.60 49.08C823.09 49.21 823.50 49.43 823.83 49.73C824.16 50.03 824.41 50.44 824.58 50.95C824.76 51.47 824.85 52.11 824.85 52.88L824.85 59.65C824.85 59.91 824.86 60.13 824.90 60.32C824.94 60.50 825.02 60.65 825.15 60.76C825.28 60.87 825.48 60.95 825.74 61.00C826.01 61.06 826.36 61.09 826.80 61.09L826.80 62.16C826.49 62.14 826.15 62.13 825.78 62.12C825.42 62.11 825.06 62.11 824.71 62.11L823.73 62.11L823.00 62.11C822.43 62.11 821.87 62.11 821.31 62.12C820.75 62.13 820.18 62.14 819.61 62.16L819.61 61.09C820.29 61.07 820.72 60.95 820.89 60.73C821.07 60.51 821.15 60.14 821.15 59.63L821.15 53.32C821.15 52.39 820.99 51.74 820.66 51.39C820.33 51.05 819.87 50.87 819.28 50.87C818.44 50.87 817.82 51.09 817.45 51.53C817.07 51.97 816.88 52.48 816.88 53.05L816.88 59.65C816.86 60.19 816.96 60.55 817.17 60.76C817.38 60.96 817.78 61.07 818.37 61.09L818.37 62.16C817.77 62.14 817.15 62.13 816.53 62.12C815.90 62.11 815.40 62.11 815.04 62.11C814.47 62.11 813.90 62.11 813.34 62.12C812.78 62.13 812.22 62.14 811.65 62.16L811.65 61.09C812.31 61.07 812.73 60.95 812.92 60.73C813.10 60.51 813.19 60.14 813.19 59.63L813.19 53.32C813.19 52.39 813.03 51.74 812.70 51.39C812.36 51.05 811.91 50.87 811.32 50.87C810.47 50.87 809.86 51.09 809.49 51.53C809.11 51.97 808.92 52.48 808.92 53.05L808.92 59.65C808.92 60.19 809.01 60.55 809.20 60.74C809.38 60.94 809.78 61.05 810.41 61.09L810.41 62.16C809.88 62.14 809.34 62.13 808.81 62.12C808.28 62.11 807.74 62.11 807.21 62.11C806.72 62.11 806.10 62.11 805.37 62.12C804.63 62.13 803.94 62.14 803.30 62.16L803.30 61.09C803.74 61.09 804.09 61.06 804.35 61.00C804.60 60.95 804.80 60.87 804.93 60.76C805.05 60.65 805.14 60.50 805.17 60.33C805.21 60.15 805.23 59.94 805.23 59.68L805.23 51.59C805.23 51.35 805.21 51.14 805.17 50.95C805.14 50.77 805.06 50.62 804.94 50.51C804.82 50.40 804.64 50.32 804.39 50.27C804.14 50.21 803.81 50.18 803.41 50.18L803.30 50.18L803.30 49.11C803.76 49.13 804.22 49.14 804.68 49.15C805.14 49.16 805.60 49.16 806.05 49.16C806.35 49.16 806.76 49.16 807.29 49.15C807.83 49.14 808.32 49.13 808.78 49.11L808.78 50.73"/><path fill="#ffffff" fill-rule="nonzero" d="M834.85 49.99C834.28 49.99 833.83 50.12 833.50 50.39C833.17 50.66 832.92 50.99 832.75 51.41C832.59 51.82 832.48 52.29 832.44 52.81C832.39 53.34 832.37 53.85 832.37 54.37L832.37 56.43C832.37 57.02 832.39 57.60 832.44 58.18C832.48 58.76 832.59 59.28 832.75 59.74C832.92 60.20 833.17 60.57 833.50 60.87C833.83 61.16 834.29 61.31 834.88 61.31C835.44 61.31 835.90 61.16 836.24 60.85C836.58 60.55 836.83 60.17 837.00 59.71C837.16 59.25 837.27 58.74 837.31 58.18C837.36 57.62 837.38 57.08 837.38 56.54L837.38 54.20C837.38 53.69 837.36 53.18 837.31 52.69C837.27 52.19 837.16 51.74 836.98 51.34C836.81 50.94 836.55 50.61 836.21 50.36C835.87 50.11 835.42 49.99 834.85 49.99M828.35 55.94C828.35 54.71 828.46 53.65 828.69 52.76C828.92 51.87 829.30 51.14 829.82 50.57C830.34 50.00 831.02 49.58 831.84 49.30C832.67 49.03 833.68 48.89 834.88 48.89C836.07 48.89 837.08 49.03 837.91 49.30C838.73 49.58 839.40 50.00 839.92 50.58C840.43 51.16 840.80 51.89 841.03 52.77C841.26 53.65 841.38 54.71 841.38 55.94C841.38 58.25 840.85 59.90 839.79 60.89C838.74 61.88 837.10 62.38 834.88 62.38C832.63 62.38 830.99 61.88 829.93 60.89C828.87 59.90 828.35 58.25 828.35 55.94"/><path fill="#ffffff" fill-rule="nonzero" d="M849.01 41.59L849.01 55.00L850.09 54.01C850.75 53.39 851.28 52.86 851.68 52.44C852.09 52.02 852.39 51.68 852.61 51.42C852.82 51.16 852.96 50.97 853.02 50.84C853.08 50.72 853.12 50.63 853.12 50.60C853.12 50.43 853.05 50.25 852.92 50.04L852.59 49.93L852.59 49.11C852.83 49.11 853.09 49.11 853.38 49.12C853.66 49.13 853.94 49.14 854.22 49.15C854.49 49.16 854.74 49.16 854.96 49.16L855.49 49.16C855.96 49.16 856.45 49.16 856.93 49.15C857.42 49.14 857.90 49.13 858.38 49.11L858.38 49.96L857.50 50.13C857.00 50.22 856.54 50.34 856.12 50.49C855.70 50.63 855.27 50.90 854.82 51.28L852.10 53.65L856.89 59.85C857.20 60.25 857.45 60.53 857.63 60.67C857.82 60.82 858.04 60.92 858.30 60.98L859.32 61.17L859.32 62.16C858.84 62.14 858.35 62.13 857.86 62.12C857.36 62.11 856.87 62.11 856.39 62.11C855.97 62.11 855.56 62.11 855.17 62.12C854.77 62.13 854.37 62.14 853.94 62.16L853.56 61.58C853.46 61.44 853.38 61.30 853.29 61.18C853.21 61.06 853.10 60.90 852.95 60.70L849.07 55.50L849.01 55.50L849.01 59.71C849.01 59.97 849.03 60.18 849.07 60.34C849.10 60.51 849.18 60.65 849.31 60.76C849.44 60.87 849.63 60.95 849.86 61.00C850.10 61.06 850.43 61.09 850.86 61.09L850.97 61.09L850.97 62.16C850.32 62.14 849.69 62.13 849.07 62.12C848.44 62.11 847.81 62.11 847.16 62.11C846.52 62.11 845.89 62.11 845.26 62.12C844.64 62.13 844.01 62.14 843.36 62.16L843.36 61.09L843.47 61.09C843.93 61.09 844.29 61.05 844.53 60.99C844.78 60.93 844.96 60.83 845.08 60.70C845.20 60.57 845.27 60.42 845.29 60.23C845.31 60.05 845.32 59.83 845.32 59.57L845.32 43.99C845.32 43.75 845.30 43.54 845.26 43.37C845.23 43.19 845.14 43.05 845.02 42.94C844.89 42.83 844.70 42.75 844.45 42.69C844.20 42.64 843.88 42.61 843.47 42.61L843.36 42.61L843.36 41.59L849.01 41.59"/><path fill="#ffffff" fill-rule="nonzero" d="M865.54 50.73C865.93 50.22 866.37 49.78 866.86 49.43C867.36 49.07 867.98 48.89 868.71 48.89C869.56 48.89 870.20 49.10 870.65 49.54C871.10 49.97 871.33 50.59 871.33 51.39C871.33 51.69 871.31 51.94 871.29 52.14C871.26 52.34 871.20 52.50 871.11 52.62C871.02 52.74 870.88 52.83 870.69 52.88C870.51 52.94 870.26 52.96 869.95 52.96C869.51 52.96 869.17 52.90 868.92 52.78C868.67 52.67 868.54 52.39 868.52 51.97C868.50 51.62 868.43 51.32 868.30 51.05C868.17 50.78 867.89 50.65 867.47 50.65C867.09 50.65 866.77 50.76 866.53 50.98C866.30 51.20 866.11 51.48 865.98 51.81C865.85 52.14 865.77 52.49 865.74 52.85C865.70 53.22 865.68 53.55 865.68 53.84L865.68 59.65C865.68 59.95 865.70 60.19 865.75 60.37C865.79 60.55 865.89 60.70 866.04 60.80C866.18 60.90 866.40 60.97 866.67 61.02C866.95 61.06 867.32 61.09 867.80 61.09L867.94 61.09L867.94 62.16C867.19 62.14 866.47 62.13 865.79 62.12C865.11 62.11 864.53 62.11 864.05 62.11C863.39 62.11 862.73 62.11 862.06 62.12C861.39 62.13 860.72 62.14 860.06 62.16L860.06 61.09L860.17 61.09C860.57 61.09 860.90 61.06 861.15 61.00C861.40 60.95 861.58 60.87 861.70 60.76C861.82 60.65 861.90 60.51 861.93 60.34C861.97 60.18 861.99 59.97 861.99 59.71L861.99 51.50C861.99 51.27 861.97 51.06 861.93 50.88C861.90 50.71 861.82 50.57 861.70 50.46C861.58 50.35 861.40 50.27 861.15 50.21C860.90 50.15 860.57 50.13 860.17 50.13L860.06 50.13L860.06 49.11C860.57 49.13 861.17 49.14 861.86 49.15C862.55 49.16 863.16 49.16 863.70 49.16C864.01 49.16 864.32 49.16 864.62 49.15C864.92 49.14 865.23 49.13 865.54 49.11L865.54 50.73"/><path fill="#ffffff" fill-rule="nonzero" d="M879.59 55.77C879.17 55.77 878.81 55.81 878.51 55.88C878.20 55.96 877.94 56.09 877.72 56.30C877.46 56.52 877.27 56.83 877.14 57.23C877.01 57.64 876.95 58.08 876.95 58.55C876.95 59.23 877.09 59.76 877.38 60.14C877.66 60.51 878.11 60.70 878.71 60.70C879.47 60.70 880.00 60.48 880.31 60.03C880.62 59.58 880.78 59.03 880.78 58.39L880.78 55.77L879.59 55.77M874.08 51.92C874.08 51.31 874.24 50.82 874.57 50.43C874.89 50.04 875.29 49.74 875.76 49.51C876.24 49.28 876.77 49.12 877.34 49.03C877.90 48.93 878.44 48.89 878.93 48.89C879.61 48.89 880.32 48.94 881.05 49.05C881.79 49.16 882.36 49.30 882.76 49.47C883.33 49.71 883.76 50.09 884.04 50.61C884.33 51.13 884.47 51.93 884.47 52.99L884.47 58.99C884.47 59.42 884.46 59.78 884.44 60.10C884.43 60.41 884.47 60.64 884.58 60.78C884.71 60.95 884.93 61.04 885.24 61.06C885.56 61.08 885.89 61.09 886.23 61.09L886.43 61.09L886.43 62.16C885.93 62.14 885.42 62.13 884.88 62.12C884.35 62.11 883.95 62.11 883.67 62.11C883.34 62.11 882.93 62.11 882.45 62.12C881.96 62.13 881.45 62.14 880.92 62.16L880.92 60.87C880.55 61.10 880.20 61.32 879.87 61.51C879.54 61.71 879.21 61.87 878.89 62.00C878.57 62.12 878.23 62.22 877.87 62.28C877.51 62.35 877.12 62.38 876.70 62.38C875.47 62.38 874.55 62.04 873.95 61.35C873.34 60.66 873.04 59.73 873.04 58.55C873.04 57.84 873.14 57.25 873.35 56.78C873.56 56.31 873.85 55.93 874.22 55.63C874.75 55.21 875.38 54.95 876.11 54.85C876.83 54.75 877.59 54.70 878.38 54.70L880.78 54.70L880.86 52.63C880.86 51.86 880.74 51.23 880.49 50.75C880.24 50.26 879.74 50.02 878.99 50.02C878.34 50.02 877.88 50.18 877.60 50.51C877.31 50.84 877.15 51.40 877.11 52.19L877.11 52.39C877.11 52.81 876.95 53.02 876.62 53.02L874.55 53.02C874.35 53.02 874.22 52.95 874.17 52.80C874.11 52.65 874.08 52.50 874.08 52.36L874.08 51.92"/><path fill="#ffffff" fill-rule="nonzero" d="M892.79 44.29L892.79 49.16L895.49 49.16L895.49 50.43L892.79 50.43L892.79 58.31C892.79 58.89 892.85 59.37 892.96 59.72C893.07 60.08 893.21 60.35 893.40 60.54C893.58 60.72 893.78 60.84 893.99 60.89C894.20 60.95 894.41 60.98 894.61 60.98C894.79 60.98 894.98 60.97 895.18 60.95C895.37 60.93 895.56 60.88 895.74 60.78L895.74 61.83C895.08 62.03 894.49 62.17 893.98 62.26C893.46 62.34 892.99 62.38 892.57 62.38C892.04 62.38 891.56 62.33 891.13 62.23C890.69 62.13 890.33 61.95 890.02 61.71C889.72 61.46 889.49 61.12 889.33 60.69C889.18 60.26 889.10 59.72 889.10 59.08L889.10 50.43L887.28 50.43L887.28 49.16L889.10 49.16L889.10 45.50L892.79 44.29"/><path fill="#ffffff" fill-rule="nonzero" d="M898.96 44.48C898.96 43.88 899.12 43.37 899.43 42.97C899.74 42.56 900.22 42.36 900.87 42.36C901.51 42.36 901.99 42.56 902.30 42.94C902.61 43.33 902.77 43.84 902.77 44.48C902.77 45.11 902.61 45.61 902.30 46.00C901.99 46.38 901.51 46.58 900.87 46.58C900.22 46.58 899.74 46.38 899.43 46.00C899.12 45.61 898.96 45.11 898.96 44.48M902.63 49.16L902.63 59.68C902.63 59.92 902.64 60.13 902.67 60.30C902.70 60.48 902.77 60.62 902.89 60.74C903.01 60.86 903.19 60.95 903.44 61.00C903.69 61.06 904.03 61.09 904.48 61.09L904.59 61.09L904.59 62.16C903.94 62.14 903.31 62.13 902.68 62.12C902.06 62.11 901.43 62.11 900.78 62.11C900.14 62.11 899.51 62.11 898.88 62.12C898.26 62.13 897.62 62.14 896.98 62.16L896.98 61.09C897.48 61.07 897.86 61.04 898.12 60.99C898.39 60.94 898.58 60.85 898.70 60.71C898.82 60.58 898.89 60.38 898.91 60.14C898.93 59.89 898.94 59.57 898.94 59.19L898.94 51.50C898.94 51.30 898.92 51.12 898.88 50.97C898.84 50.81 898.77 50.68 898.65 50.57C898.53 50.46 898.34 50.38 898.10 50.32C897.85 50.27 897.51 50.24 897.09 50.24L896.98 50.24L896.98 49.16L902.63 49.16"/><path fill="#ffffff" fill-rule="nonzero" d="M912.33 49.96C911.85 49.96 911.48 50.07 911.21 50.29C910.94 50.51 910.75 50.81 910.62 51.17C910.49 51.54 910.41 51.96 910.38 52.44C910.36 52.92 910.33 53.42 910.32 53.95L910.32 54.67L914.45 54.67L914.45 53.79C914.45 53.24 914.44 52.73 914.41 52.26C914.38 51.79 914.30 51.39 914.16 51.05C914.02 50.71 913.81 50.44 913.53 50.25C913.24 50.06 912.84 49.96 912.33 49.96M906.29 55.52C906.29 54.29 906.41 53.25 906.64 52.40C906.87 51.55 907.23 50.86 907.73 50.35C908.22 49.83 908.86 49.46 909.65 49.23C910.44 49.00 911.40 48.89 912.52 48.89C913.60 48.89 914.51 49.00 915.23 49.23C915.96 49.46 916.54 49.82 916.97 50.31C917.40 50.79 917.71 51.42 917.89 52.18C918.08 52.94 918.17 53.84 918.17 54.89C918.17 55.18 918.16 55.40 918.16 55.52C918.15 55.65 918.14 55.79 918.14 55.94L910.32 55.94L910.32 57.07C910.32 57.60 910.34 58.12 910.40 58.62C910.45 59.13 910.57 59.57 910.74 59.96C910.92 60.34 911.17 60.66 911.49 60.89C911.81 61.13 912.24 61.25 912.77 61.25C913.45 61.25 913.99 61.08 914.39 60.74C914.80 60.40 915.09 59.75 915.28 58.77C915.29 58.72 915.32 58.62 915.34 58.47C915.37 58.32 915.48 58.25 915.66 58.25L917.42 58.25C917.46 58.25 917.52 58.27 917.60 58.32C917.69 58.37 917.73 58.49 917.73 58.69C917.73 59.39 917.59 59.97 917.30 60.44C917.02 60.91 916.64 61.28 916.17 61.57C915.70 61.85 915.17 62.06 914.57 62.19C913.98 62.32 913.36 62.38 912.74 62.38C911.47 62.38 910.42 62.25 909.59 61.98C908.75 61.72 908.09 61.30 907.60 60.74C907.12 60.18 906.78 59.47 906.58 58.61C906.39 57.75 906.29 56.72 906.29 55.52"/><path fill="#606a70" fill-rule="nonzero" d="M766.10 71.92H878.43V106.11H766.10Z"/><path fill="#ffffff" fill-rule="nonzero" d="M769.71 80.22C770.21 80.24 770.74 80.25 771.30 80.26C771.86 80.27 772.31 80.27 772.66 80.27C773.19 80.27 773.72 80.27 774.24 80.26C774.77 80.25 775.30 80.24 775.83 80.22L782.41 93.65L788.70 80.22C789.17 80.22 789.65 80.23 790.13 80.24C790.61 80.26 791.08 80.27 791.56 80.27L792.14 80.27C792.40 80.27 792.67 80.27 792.97 80.26C793.26 80.25 793.56 80.24 793.88 80.23C794.19 80.22 794.48 80.22 794.76 80.22L794.76 81.35L794.62 81.35C794.05 81.35 793.61 81.38 793.30 81.44C792.99 81.51 792.76 81.60 792.62 81.72C792.48 81.84 792.40 81.99 792.37 82.17C792.35 82.36 792.33 82.58 792.33 82.83L792.33 96.74C792.33 97.01 792.36 97.25 792.40 97.44C792.45 97.63 792.54 97.78 792.69 97.89C792.84 98.01 793.06 98.08 793.37 98.13C793.67 98.17 794.09 98.20 794.62 98.20L794.76 98.20L794.76 99.33C793.97 99.29 793.18 99.27 792.40 99.26C791.62 99.25 790.84 99.25 790.05 99.27C789.35 99.29 788.66 99.30 787.97 99.30C787.28 99.30 786.58 99.31 785.89 99.33L785.89 98.20L786.02 98.20C786.59 98.20 787.03 98.17 787.35 98.10C787.66 98.04 787.88 97.95 788.02 97.83C788.16 97.71 788.24 97.56 788.27 97.37C788.30 97.19 788.31 96.97 788.31 96.71L788.31 84.13L788.26 84.13L781.17 99.24C781.12 99.39 781.03 99.46 780.90 99.46C780.77 99.46 780.68 99.39 780.62 99.24L773.60 84.13L773.54 84.13L773.54 96.35C773.54 96.76 773.56 97.08 773.61 97.32C773.66 97.56 773.76 97.74 773.93 97.87C774.09 98.00 774.33 98.08 774.64 98.13C774.96 98.17 775.38 98.20 775.91 98.20L776.08 98.20L776.08 99.33C775.51 99.31 774.93 99.29 774.35 99.29C773.78 99.28 773.21 99.27 772.66 99.27C772.16 99.27 771.67 99.28 771.19 99.29C770.70 99.29 770.21 99.31 769.71 99.33L769.71 98.20L769.82 98.20C770.30 98.20 770.68 98.17 770.97 98.12C771.25 98.06 771.47 97.96 771.63 97.83C771.78 97.69 771.88 97.49 771.93 97.23C771.98 96.98 772.00 96.64 772.00 96.22L772.00 82.83C772.00 82.56 771.98 82.33 771.94 82.14C771.91 81.96 771.82 81.81 771.68 81.69C771.54 81.57 771.33 81.48 771.03 81.43C770.74 81.37 770.34 81.35 769.82 81.35L769.71 81.35L769.71 80.22"/><path fill="#ffffff" fill-rule="nonzero" d="M803.88 82.50C803.88 82.03 804.06 81.61 804.42 81.25C804.77 80.89 805.19 80.71 805.67 80.71C806.15 80.71 806.56 80.90 806.91 81.26C807.26 81.63 807.43 82.04 807.43 82.50C807.43 82.98 807.26 83.40 806.91 83.76C806.56 84.11 806.15 84.29 805.67 84.29C805.17 84.29 804.75 84.11 804.40 83.76C804.05 83.40 803.88 82.98 803.88 82.50M802.69 87.16C802.12 87.16 801.67 87.29 801.34 87.56C801.01 87.82 800.76 88.16 800.60 88.57C800.43 88.99 800.33 89.46 800.28 89.98C800.24 90.50 800.21 91.02 800.21 91.53L800.21 93.60C800.21 94.19 800.24 94.77 800.28 95.35C800.33 95.93 800.43 96.44 800.60 96.90C800.76 97.36 801.01 97.74 801.34 98.03C801.67 98.33 802.13 98.47 802.72 98.47C803.29 98.47 803.74 98.32 804.08 98.02C804.42 97.72 804.68 97.34 804.84 96.88C805.01 96.42 805.11 95.91 805.16 95.35C805.20 94.79 805.23 94.24 805.23 93.71L805.23 91.37C805.23 90.86 805.20 90.35 805.16 89.85C805.11 89.36 805.00 88.91 804.83 88.51C804.65 88.10 804.40 87.78 804.06 87.53C803.72 87.28 803.26 87.16 802.69 87.16M798.15 82.50C798.15 82.03 798.31 81.61 798.64 81.25C798.97 80.89 799.38 80.71 799.86 80.71C800.33 80.71 800.75 80.89 801.11 81.24C801.47 81.58 801.65 82.01 801.65 82.50C801.65 83.00 801.47 83.42 801.12 83.77C800.77 84.12 800.35 84.29 799.86 84.29C799.38 84.29 798.97 84.11 798.64 83.74C798.31 83.37 798.15 82.96 798.15 82.50M796.19 93.10C796.19 91.87 796.31 90.81 796.54 89.92C796.76 89.03 797.14 88.30 797.66 87.73C798.19 87.17 798.86 86.74 799.69 86.47C800.52 86.19 801.53 86.05 802.72 86.05C803.91 86.05 804.93 86.19 805.75 86.47C806.58 86.74 807.25 87.17 807.76 87.75C808.28 88.33 808.65 89.06 808.88 89.94C809.11 90.82 809.22 91.87 809.22 93.10C809.22 95.42 808.70 97.07 807.64 98.06C806.58 99.05 804.94 99.55 802.72 99.55C800.48 99.55 798.83 99.05 797.77 98.06C796.72 97.07 796.19 95.42 796.19 93.10"/><path fill="#ffffff" fill-rule="nonzero" d="M817.10 87.27C816.41 87.27 815.87 87.51 815.51 87.99C815.14 88.47 814.96 89.20 814.96 90.19C814.96 90.56 814.98 90.91 815.02 91.26C815.07 91.61 815.17 91.92 815.31 92.19C815.46 92.46 815.67 92.68 815.95 92.86C816.22 93.03 816.60 93.12 817.08 93.12C817.52 93.12 817.88 93.01 818.15 92.81C818.43 92.60 818.63 92.35 818.77 92.04C818.91 91.73 819.00 91.39 819.05 91.01C819.09 90.63 819.12 90.27 819.12 89.92C819.12 89.06 818.95 88.41 818.63 87.95C818.31 87.50 817.80 87.27 817.10 87.27M814.84 98.47L814.49 98.47C814.32 98.47 814.14 98.45 813.94 98.42C813.66 98.77 813.43 99.14 813.23 99.54C813.04 99.93 812.94 100.32 812.94 100.70C812.94 101.20 813.05 101.62 813.27 101.98C813.49 102.33 813.79 102.62 814.16 102.84C814.52 103.07 814.94 103.23 815.41 103.33C815.88 103.43 816.36 103.48 816.86 103.48C817.39 103.48 817.89 103.41 818.36 103.27C818.83 103.13 819.24 102.93 819.60 102.67C819.96 102.41 820.24 102.10 820.44 101.72C820.64 101.34 820.74 100.90 820.74 100.40C820.74 99.71 820.43 99.21 819.82 98.90C819.20 98.60 818.37 98.45 817.32 98.45C817.16 98.45 816.99 98.45 816.83 98.46C816.66 98.47 816.50 98.47 816.33 98.47L814.84 98.47M811.40 90.24C811.40 89.55 811.54 88.95 811.83 88.46C812.11 87.96 812.51 87.56 813.01 87.24C813.52 86.93 814.11 86.70 814.79 86.55C815.47 86.40 816.19 86.33 816.97 86.33C817.24 86.33 817.65 86.35 818.19 86.40C818.73 86.45 819.49 86.58 820.47 86.77L823.33 86.55C823.50 86.55 823.58 86.65 823.58 86.85L823.50 87.47C823.46 87.67 823.37 87.76 823.22 87.76L821.54 87.67C821.94 88.10 822.22 88.52 822.37 88.93C822.51 89.34 822.59 89.81 822.59 90.34C822.59 91.00 822.44 91.57 822.15 92.04C821.85 92.51 821.45 92.89 820.95 93.19C820.44 93.49 819.84 93.71 819.14 93.85C818.44 93.99 817.68 94.06 816.86 94.06C816.18 94.06 815.61 94.02 815.16 93.94C814.71 93.85 814.45 93.80 814.38 93.76C814.28 93.96 814.21 94.14 814.16 94.29C814.10 94.45 814.07 94.62 814.07 94.80C814.07 95.08 814.13 95.30 814.25 95.46C814.37 95.62 814.52 95.74 814.71 95.82C814.89 95.90 815.10 95.96 815.34 95.98C815.58 96.00 815.82 96.02 816.06 96.02L818.95 95.97C820.62 95.97 821.81 96.27 822.50 96.87C823.20 97.48 823.55 98.32 823.55 99.41C823.55 100.22 823.35 100.94 822.95 101.57C822.54 102.20 822.02 102.72 821.38 103.14C820.73 103.56 820.01 103.88 819.20 104.10C818.39 104.31 817.57 104.42 816.75 104.42C815.55 104.42 814.57 104.29 813.80 104.05C813.03 103.80 812.42 103.48 811.97 103.10C811.52 102.72 811.20 102.30 811.03 101.84C810.85 101.38 810.77 100.92 810.77 100.48C810.77 99.90 810.98 99.45 811.41 99.11C811.85 98.78 812.35 98.57 812.92 98.47C812.86 98.21 812.80 97.91 812.74 97.58C812.67 97.25 812.64 96.93 812.64 96.61C812.64 96.40 812.66 96.15 812.71 95.87C812.75 95.59 812.81 95.30 812.89 95.01C812.96 94.72 813.05 94.44 813.16 94.16C813.27 93.88 813.39 93.64 813.52 93.44C812.82 93.08 812.30 92.63 811.94 92.11C811.58 91.59 811.40 90.97 811.40 90.24"/><path fill="#ffffff" fill-rule="nonzero" d="M830.69 78.76L830.69 96.60C830.69 96.86 830.69 97.09 830.70 97.29C830.71 97.49 830.77 97.66 830.87 97.80C830.97 97.94 831.15 98.05 831.40 98.13C831.66 98.21 832.04 98.25 832.53 98.25L832.64 98.25L832.64 99.33C832.33 99.33 831.99 99.32 831.62 99.31C831.26 99.30 830.90 99.29 830.56 99.29C830.22 99.28 829.90 99.27 829.60 99.27L828.84 99.27C828.38 99.27 827.79 99.28 827.08 99.29C826.36 99.29 825.68 99.31 825.04 99.33L825.04 98.25L825.15 98.25C825.55 98.25 825.88 98.23 826.13 98.18C826.38 98.14 826.56 98.06 826.69 97.95C826.82 97.84 826.90 97.70 826.94 97.52C826.98 97.35 827.00 97.13 827.00 96.88L827.00 81.15C827.00 80.92 826.98 80.71 826.94 80.53C826.90 80.36 826.82 80.22 826.69 80.11C826.56 80.00 826.38 79.91 826.13 79.86C825.88 79.80 825.55 79.78 825.15 79.78L825.04 79.78L825.04 78.76L830.69 78.76"/><path fill="#ffffff" fill-rule="nonzero" d="M836.20 81.65C836.20 81.04 836.35 80.54 836.67 80.13C836.98 79.73 837.46 79.53 838.10 79.53C838.74 79.53 839.22 79.72 839.53 80.11C839.84 80.49 840.00 81.01 840.00 81.65C840.00 82.27 839.84 82.78 839.53 83.16C839.22 83.55 838.74 83.74 838.10 83.74C837.46 83.74 836.98 83.55 836.67 83.16C836.35 82.78 836.20 82.27 836.20 81.65M839.86 86.33L839.86 96.85C839.86 97.09 839.88 97.29 839.90 97.47C839.93 97.64 840.01 97.79 840.12 97.91C840.24 98.03 840.43 98.12 840.68 98.17C840.92 98.23 841.27 98.25 841.71 98.25L841.82 98.25L841.82 99.33C841.18 99.31 840.54 99.29 839.92 99.29C839.29 99.28 838.66 99.27 838.02 99.27C837.37 99.27 836.74 99.28 836.12 99.29C835.49 99.29 834.86 99.31 834.21 99.33L834.21 98.25C834.71 98.23 835.09 98.20 835.36 98.16C835.62 98.11 835.82 98.02 835.94 97.88C836.06 97.74 836.13 97.55 836.14 97.30C836.16 97.06 836.17 96.74 836.17 96.35L836.17 88.67C836.17 88.47 836.15 88.29 836.12 88.13C836.08 87.98 836.00 87.84 835.88 87.73C835.76 87.62 835.58 87.54 835.33 87.49C835.08 87.43 834.75 87.40 834.32 87.40L834.21 87.40L834.21 86.33L839.86 86.33"/><path fill="#ffffff" fill-rule="nonzero" d="M843.53 93.05C843.53 91.91 843.64 90.91 843.87 90.03C844.10 89.16 844.48 88.43 845.00 87.84C845.53 87.26 846.20 86.81 847.04 86.51C847.88 86.21 848.89 86.05 850.09 86.05C850.91 86.05 851.78 86.14 852.69 86.32C853.60 86.49 854.39 86.73 855.07 87.05L855.07 90.30L853.31 90.30C853.22 89.30 852.98 88.53 852.59 87.97C852.21 87.41 851.54 87.13 850.58 87.13C849.97 87.13 849.48 87.26 849.09 87.51C848.71 87.77 848.40 88.13 848.18 88.59C847.96 89.05 847.81 89.58 847.73 90.18C847.65 90.79 847.61 91.43 847.61 92.11L847.61 93.63C847.61 94.32 847.65 94.97 847.73 95.57C847.81 96.17 847.95 96.68 848.16 97.11C848.36 97.54 848.64 97.88 849.01 98.13C849.38 98.38 849.86 98.50 850.44 98.50C850.99 98.50 851.44 98.42 851.77 98.27C852.10 98.11 852.36 97.89 852.57 97.59C852.77 97.30 852.92 96.94 853.02 96.52C853.12 96.10 853.21 95.61 853.28 95.06L855.07 95.06L855.07 98.72C854.39 98.98 853.62 99.18 852.76 99.33C851.89 99.47 850.90 99.55 849.78 99.55C847.65 99.55 846.08 99.03 845.06 98.00C844.04 96.98 843.53 95.33 843.53 93.05"/><path fill="#ffffff" fill-rule="nonzero" d="M862.62 78.76L862.62 87.87L862.68 87.87C863.61 86.68 865.01 86.08 866.87 86.08C868.30 86.08 869.30 86.41 869.88 87.06C870.46 87.71 870.75 88.79 870.75 90.30L870.75 96.88C870.75 97.13 870.77 97.34 870.81 97.51C870.84 97.67 870.93 97.81 871.05 97.92C871.18 98.03 871.37 98.11 871.60 98.17C871.84 98.23 872.17 98.25 872.60 98.25L872.71 98.25L872.71 99.33C872.06 99.31 871.43 99.29 870.81 99.29C870.18 99.28 869.55 99.27 868.90 99.27L867.25 99.27C866.61 99.27 866.00 99.29 865.43 99.33L865.43 98.25C866.13 98.23 866.58 98.12 866.77 97.92C866.96 97.72 867.06 97.37 867.06 96.88L867.06 90.74C867.06 89.85 866.92 89.17 866.65 88.68C866.37 88.20 865.82 87.95 864.99 87.95C864.15 87.95 863.54 88.23 863.17 88.77C862.81 89.31 862.62 89.95 862.62 90.68L862.62 96.88C862.62 97.37 862.72 97.73 862.91 97.94C863.10 98.15 863.55 98.25 864.25 98.25L864.25 99.33C863.68 99.31 863.11 99.29 862.55 99.29C861.99 99.28 861.45 99.27 860.91 99.27L859.03 99.27C858.32 99.27 857.64 99.29 856.97 99.33L856.97 98.25C857.47 98.23 857.85 98.20 858.10 98.16C858.36 98.11 858.55 98.02 858.68 97.89C858.81 97.77 858.88 97.58 858.90 97.34C858.92 97.11 858.93 96.78 858.93 96.38L858.93 81.59C858.93 81.26 858.93 80.98 858.92 80.75C858.91 80.52 858.84 80.34 858.72 80.20C858.60 80.07 858.41 79.96 858.14 79.89C857.88 79.81 857.49 79.78 856.97 79.78L856.97 78.76L862.62 78.76"/><path fill="#e1058c" fill-rule="nonzero" d="M818.20 112.09L824.14 145.77L933.29 126.54L927.35 92.86L818.20 112.09"/><path fill="#ffffff" fill-rule="nonzero" d="M823.19 119.64C823.68 119.57 824.21 119.49 824.76 119.40C825.31 119.32 825.76 119.24 826.10 119.18C826.63 119.09 827.15 118.99 827.66 118.89C828.18 118.79 828.69 118.69 829.22 118.58L838.04 130.67L841.89 116.34C842.36 116.26 842.83 116.19 843.30 116.12C843.78 116.06 844.25 115.98 844.72 115.90C844.85 115.88 845.03 115.85 845.29 115.80C845.54 115.76 845.81 115.70 846.10 115.64C846.39 115.58 846.68 115.52 846.99 115.46C847.30 115.40 847.59 115.34 847.86 115.29L848.05 116.40L847.92 116.43C847.36 116.53 846.93 116.64 846.63 116.75C846.34 116.87 846.13 117.00 846.01 117.14C845.90 117.28 845.84 117.45 845.85 117.63C845.85 117.82 845.88 118.04 845.92 118.29L848.34 131.98C848.39 132.26 848.45 132.48 848.53 132.66C848.61 132.85 848.73 132.98 848.89 133.06C849.06 133.14 849.29 133.18 849.60 133.17C849.91 133.17 850.32 133.12 850.85 133.02L850.98 133.00L851.18 134.11C850.39 134.21 849.62 134.33 848.85 134.45C848.07 134.58 847.30 134.72 846.53 134.88C845.84 135.01 845.16 135.14 844.48 135.26C843.81 135.38 843.12 135.51 842.44 135.65L842.24 134.54L842.38 134.52C842.94 134.42 843.37 134.31 843.66 134.19C843.96 134.07 844.17 133.94 844.28 133.80C844.40 133.66 844.45 133.50 844.45 133.31C844.44 133.13 844.42 132.91 844.37 132.65L842.19 120.26L842.13 120.27L837.79 136.39C837.76 136.54 837.68 136.63 837.55 136.65C837.43 136.68 837.32 136.62 837.24 136.48L827.70 122.82L827.64 122.83L829.77 134.87C829.84 135.26 829.92 135.58 830.00 135.80C830.09 136.03 830.22 136.19 830.41 136.29C830.59 136.39 830.84 136.43 831.16 136.42C831.48 136.41 831.90 136.36 832.42 136.27L832.58 136.24L832.78 137.35C832.22 137.43 831.65 137.52 831.08 137.61C830.51 137.70 829.95 137.80 829.41 137.89C828.92 137.98 828.43 138.07 827.96 138.16C827.48 138.26 827.00 138.35 826.51 138.46L826.32 137.35L826.42 137.33C826.89 137.24 827.26 137.15 827.54 137.05C827.81 136.94 828.01 136.81 828.14 136.65C828.27 136.49 828.33 136.27 828.33 136.01C828.33 135.75 828.30 135.41 828.22 135.00L825.90 121.82C825.85 121.55 825.79 121.32 825.72 121.15C825.66 120.98 825.54 120.84 825.39 120.75C825.23 120.65 825.00 120.61 824.70 120.60C824.41 120.60 824.00 120.64 823.50 120.73L823.39 120.75L823.19 119.64"/><path fill="#ffffff" fill-rule="nonzero" d="M858.23 126.38C857.82 126.45 857.47 126.55 857.18 126.68C856.90 126.80 856.66 126.98 856.48 127.22C856.27 127.48 856.13 127.82 856.07 128.24C856.02 128.66 856.03 129.11 856.11 129.58C856.23 130.25 856.46 130.74 856.81 131.06C857.15 131.39 857.63 131.49 858.22 131.39C858.96 131.26 859.45 130.94 859.68 130.45C859.91 129.95 859.97 129.39 859.86 128.75L859.40 126.18L858.23 126.38M852.14 123.54C852.03 122.95 852.10 122.43 852.35 121.99C852.60 121.56 852.94 121.19 853.37 120.88C853.80 120.57 854.29 120.32 854.84 120.13C855.38 119.94 855.90 119.80 856.39 119.72C857.06 119.60 857.76 119.53 858.51 119.51C859.25 119.49 859.83 119.53 860.26 119.62C860.86 119.76 861.35 120.06 861.72 120.52C862.09 120.99 862.37 121.75 862.55 122.80L863.60 128.71C863.67 129.12 863.73 129.49 863.76 129.80C863.80 130.11 863.88 130.33 864.02 130.45C864.17 130.59 864.41 130.64 864.72 130.61C865.03 130.57 865.35 130.52 865.70 130.46L865.89 130.43L866.07 131.49C865.58 131.56 865.07 131.63 864.55 131.71C864.02 131.80 863.62 131.86 863.35 131.91C863.03 131.97 862.62 132.04 862.15 132.14C861.67 132.23 861.17 132.33 860.65 132.44L860.42 131.17C860.10 131.47 859.80 131.74 859.50 131.99C859.21 132.23 858.92 132.45 858.62 132.63C858.33 132.81 858.01 132.97 857.67 133.09C857.33 133.22 856.95 133.32 856.53 133.39C855.32 133.61 854.36 133.43 853.64 132.85C852.92 132.28 852.46 131.42 852.26 130.26C852.14 129.55 852.14 128.95 852.26 128.45C852.39 127.96 852.61 127.53 852.92 127.18C853.37 126.67 853.94 126.30 854.64 126.08C855.34 125.85 856.08 125.67 856.85 125.53L859.21 125.12L858.94 123.07C858.80 122.31 858.57 121.71 858.24 121.28C857.91 120.84 857.38 120.69 856.64 120.82C856.00 120.93 855.58 121.17 855.35 121.55C855.13 121.92 855.07 122.50 855.17 123.29L855.20 123.48C855.28 123.89 855.15 124.13 854.83 124.19L852.79 124.55C852.59 124.58 852.45 124.53 852.37 124.40C852.29 124.26 852.24 124.12 852.21 123.98L852.14 123.54"/><path fill="#ffffff" fill-rule="nonzero" d="M866.48 125.04C866.28 123.92 866.22 122.91 866.29 122.01C866.37 121.11 866.61 120.33 867.02 119.66C867.44 118.99 868.03 118.43 868.80 117.99C869.57 117.55 870.54 117.22 871.72 117.02C872.53 116.87 873.40 116.81 874.33 116.82C875.25 116.84 876.08 116.94 876.80 117.13L877.37 120.33L875.63 120.63C875.37 119.67 875.00 118.95 874.52 118.47C874.04 117.98 873.33 117.82 872.39 117.99C871.80 118.09 871.33 118.31 871.00 118.62C870.66 118.95 870.42 119.35 870.29 119.84C870.15 120.33 870.09 120.88 870.12 121.49C870.14 122.10 870.21 122.74 870.33 123.41L870.59 124.90C870.71 125.59 870.87 126.22 871.05 126.79C871.24 127.37 871.47 127.85 871.74 128.24C872.01 128.63 872.35 128.91 872.76 129.09C873.16 129.27 873.65 129.31 874.23 129.21C874.78 129.11 875.20 128.96 875.50 128.75C875.79 128.54 876.02 128.27 876.17 127.95C876.31 127.62 876.40 127.24 876.43 126.81C876.45 126.38 876.45 125.88 876.43 125.33L878.19 125.02L878.83 128.62C878.21 129.00 877.48 129.33 876.66 129.62C875.83 129.92 874.87 130.16 873.76 130.36C871.67 130.73 870.03 130.49 868.84 129.66C867.66 128.82 866.87 127.28 866.48 125.04"/><path fill="#ffffff" fill-rule="nonzero" d="M882.80 107.65L884.38 116.63L884.43 116.62C885.15 115.28 886.42 114.45 888.25 114.13C889.66 113.88 890.71 114.03 891.39 114.57C892.07 115.11 892.54 116.12 892.81 117.61L893.95 124.09C893.99 124.34 894.05 124.54 894.11 124.70C894.18 124.86 894.28 124.98 894.43 125.06C894.58 125.15 894.77 125.20 895.02 125.21C895.26 125.23 895.59 125.20 896.01 125.12L896.12 125.10L896.30 126.16C895.67 126.25 895.04 126.35 894.42 126.45C893.81 126.55 893.18 126.65 892.55 126.77C892.10 126.85 891.55 126.94 890.92 127.05C890.29 127.16 889.69 127.29 889.14 127.42L888.95 126.37C889.64 126.23 890.06 126.04 890.21 125.81C890.37 125.58 890.40 125.22 890.31 124.73L889.25 118.68C889.09 117.81 888.84 117.16 888.48 116.73C888.13 116.30 887.54 116.16 886.73 116.30C885.90 116.45 885.35 116.82 885.08 117.42C884.81 118.01 884.74 118.67 884.87 119.40L885.95 125.50C886.03 125.98 886.19 126.32 886.41 126.49C886.64 126.67 887.10 126.69 887.79 126.57L887.97 127.63C887.41 127.71 886.85 127.79 886.30 127.88C885.74 127.97 885.20 128.06 884.68 128.15C884.14 128.25 883.52 128.36 882.82 128.48C882.12 128.60 881.45 128.74 880.81 128.89L880.62 127.83C881.11 127.73 881.47 127.63 881.72 127.54C881.96 127.45 882.14 127.33 882.24 127.18C882.35 127.04 882.39 126.84 882.36 126.60C882.34 126.37 882.29 126.05 882.22 125.65L879.65 111.09C879.60 110.76 879.54 110.49 879.49 110.26C879.45 110.04 879.35 109.87 879.21 109.75C879.07 109.64 878.86 109.57 878.58 109.54C878.31 109.52 877.92 109.55 877.41 109.64L877.23 108.63L882.80 107.65"/><path fill="#ffffff" fill-rule="nonzero" d="M901.54 112.85C901.07 112.93 900.72 113.11 900.49 113.37C900.27 113.63 900.13 113.96 900.06 114.34C900.00 114.73 900.00 115.15 900.05 115.63C900.11 116.10 900.17 116.61 900.25 117.13L900.37 117.84L904.44 117.12L904.29 116.25C904.20 115.71 904.09 115.21 903.98 114.76C903.88 114.30 903.72 113.92 903.53 113.61C903.33 113.29 903.08 113.07 902.77 112.93C902.45 112.79 902.04 112.76 901.54 112.85M896.56 119.38C896.35 118.17 896.28 117.12 896.36 116.24C896.43 115.36 896.67 114.62 897.07 114.03C897.47 113.44 898.04 112.96 898.78 112.60C899.52 112.23 900.44 111.96 901.54 111.76C902.61 111.57 903.52 111.53 904.27 111.63C905.03 111.73 905.66 111.98 906.17 112.39C906.68 112.79 907.09 113.35 907.40 114.07C907.72 114.79 907.96 115.66 908.15 116.69C908.20 116.98 908.23 117.19 908.24 117.32C908.25 117.45 908.27 117.58 908.30 117.73L900.59 119.09L900.79 120.20C900.88 120.72 901.00 121.23 901.14 121.72C901.28 122.20 901.47 122.62 901.71 122.97C901.95 123.32 902.25 123.58 902.61 123.76C902.97 123.94 903.41 123.99 903.93 123.89C904.60 123.78 905.11 123.51 905.44 123.11C905.78 122.71 905.96 122.01 905.97 121.02C905.98 120.96 905.98 120.86 905.99 120.71C905.99 120.56 906.08 120.47 906.26 120.44L908.00 120.13C908.03 120.12 908.10 120.14 908.18 120.17C908.27 120.20 908.34 120.31 908.37 120.51C908.49 121.20 908.45 121.80 908.25 122.31C908.06 122.82 907.75 123.25 907.34 123.61C906.93 123.98 906.44 124.27 905.87 124.50C905.31 124.73 904.72 124.90 904.10 125.01C902.85 125.23 901.79 125.28 900.92 125.16C900.06 125.05 899.33 124.76 898.76 124.29C898.18 123.82 897.72 123.18 897.38 122.36C897.04 121.55 896.77 120.55 896.56 119.38"/><path fill="#ffffff" fill-rule="nonzero" d="M914.27 111.45C914.67 111.04 915.01 110.69 915.30 110.40C915.60 110.10 915.89 109.85 916.18 109.64C916.47 109.43 916.78 109.26 917.12 109.13C917.46 108.99 917.87 108.88 918.34 108.80C919.57 108.58 920.56 108.72 921.33 109.21C922.10 109.70 922.61 110.69 922.88 112.17L924.04 118.78C924.08 119.02 924.13 119.22 924.19 119.39C924.25 119.55 924.35 119.68 924.50 119.77C924.64 119.85 924.84 119.90 925.10 119.91C925.35 119.92 925.68 119.89 926.10 119.82L926.21 119.80L926.39 120.86C925.70 120.96 925.02 121.07 924.34 121.18C923.66 121.29 923.09 121.38 922.64 121.46C922.10 121.56 921.54 121.66 920.97 121.76C920.40 121.86 919.83 121.98 919.26 122.12L919.07 121.06L919.15 121.04C919.80 120.91 920.19 120.73 920.33 120.49C920.46 120.25 920.48 119.84 920.38 119.26L919.32 113.24C919.15 112.28 918.85 111.65 918.42 111.34C917.99 111.04 917.44 110.95 916.75 111.07C916.30 111.15 915.94 111.30 915.67 111.52C915.40 111.75 915.20 112.01 915.07 112.33C914.94 112.64 914.87 112.98 914.86 113.34C914.85 113.71 914.87 114.07 914.94 114.43L915.95 120.18C916.03 120.65 916.19 120.98 916.41 121.18C916.63 121.37 917.08 121.41 917.77 121.29L917.96 122.34C917.43 122.42 916.90 122.50 916.36 122.58C915.83 122.67 915.30 122.76 914.77 122.85C914.25 122.94 913.62 123.06 912.90 123.19C912.18 123.33 911.49 123.46 910.85 123.60L910.66 122.54L910.77 122.52C911.17 122.45 911.48 122.37 911.70 122.27C911.93 122.18 912.10 122.06 912.20 121.93C912.31 121.80 912.37 121.65 912.38 121.48C912.38 121.31 912.37 121.11 912.33 120.88L910.90 112.80C910.86 112.56 910.80 112.36 910.74 112.20C910.67 112.03 910.56 111.90 910.42 111.82C910.27 111.73 910.08 111.69 909.84 111.68C909.59 111.68 909.27 111.71 908.87 111.78L908.77 111.80L908.58 110.74C909.03 110.68 909.52 110.61 910.04 110.53C910.55 110.45 910.98 110.38 911.30 110.32C911.70 110.25 912.13 110.17 912.60 110.08C913.07 109.99 913.53 109.89 913.98 109.79L914.27 111.45"/></svg>